STARTFONT 2.3
FONT -FontForge-Permanent Marker-Book-R-Normal--8-80-72-72-P-47-ISO10646-1
SIZE 8 72 72  4
FONTBOUNDINGBOX 13 12 -3 -3
COMMENT "Generated by fontforge, http://fontforge.sourceforge.net"
COMMENT "Copyright (c) 2010 by Font Diner, Inc. All rights reserved."
STARTPROPERTIES 40
FOUNDRY "FontForge"
FAMILY_NAME "Permanent Marker"
WEIGHT_NAME "Book"
SLANT "R"
SETWIDTH_NAME "Normal"
ADD_STYLE_NAME ""
PIXEL_SIZE 8
POINT_SIZE 80
RESOLUTION_X 72
RESOLUTION_Y 72
SPACING "P"
AVERAGE_WIDTH 47
CHARSET_REGISTRY "ISO10646"
CHARSET_ENCODING "1"
FONTNAME_REGISTRY ""
CHARSET_COLLECTIONS "ISO10646-1"
BITS_PER_PIXEL 4
FONT_NAME "PermanentMarker-Regular"
FACE_NAME "Permanent Marker Regular"
COPYRIGHT "Copyright (c) 2010 by Font Diner, Inc. All rights reserved."
FONT_VERSION "1.001"
FONT_ASCENT 6
FONT_DESCENT 2
UNDERLINE_POSITION -1
UNDERLINE_THICKNESS 1
X_HEIGHT 4
CAP_HEIGHT 5
RAW_ASCENT 799
RAW_DESCENT 200
NORM_SPACE 3
RELATIVE_WEIGHT 40
RELATIVE_SETWIDTH 50
SUPERSCRIPT_X 0
SUPERSCRIPT_Y 3
SUPERSCRIPT_SIZE 5
SUBSCRIPT_X 0
SUBSCRIPT_Y 1
SUBSCRIPT_SIZE 5
AVG_LOWERCASE_WIDTH 46
AVG_UPPERCASE_WIDTH 55
ENDPROPERTIES
CHARS 230
STARTCHAR space
ENCODING 32
SWIDTH 370 0
DWIDTH 3 0
BBX 1 1 0 0
BITMAP
00
ENDCHAR
STARTCHAR exclam
ENCODING 33
SWIDTH 260 0
DWIDTH 2 0
BBX 3 7 0 -1
BITMAP
0A10
1F10
4D00
6A00
2100
D500
2000
ENDCHAR
STARTCHAR quotedbl
ENCODING 34
SWIDTH 492 0
DWIDTH 4 0
BBX 5 4 0 2
BITMAP
0B4C20
2F7E00
5D8A00
277500
ENDCHAR
STARTCHAR numbersign
ENCODING 35
SWIDTH 703 0
DWIDTH 6 0
BBX 6 6 0 0
BITMAP
007070
03F7F1
4EDED6
4CBDA0
8F9E50
5A7900
ENDCHAR
STARTCHAR dollar
ENCODING 36
SWIDTH 493 0
DWIDTH 4 0
BBX 5 7 0 -1
BITMAP
006200
16ED20
AF8410
15B200
3AD100
2F2000
010000
ENDCHAR
STARTCHAR percent
ENCODING 37
SWIDTH 643 0
DWIDTH 5 0
BBX 6 6 0 0
BITMAP
063042
6D94D1
6B9C20
04C720
4C7D80
956C60
ENDCHAR
STARTCHAR ampersand
ENCODING 38
SWIDTH 599 0
DWIDTH 5 0
BBX 5 5 0 0
BITMAP
003100
37D500
DEFD50
39E310
037000
ENDCHAR
STARTCHAR quotesingle
ENCODING 39
SWIDTH 265 0
DWIDTH 2 0
BBX 3 4 0 2
BITMAP
0B40
2F30
5D00
2700
ENDCHAR
STARTCHAR parenleft
ENCODING 40
SWIDTH 361 0
DWIDTH 3 0
BBX 4 9 0 -2
BITMAP
0028
02E9
0D90
5E10
8A00
B800
A900
5B00
0400
ENDCHAR
STARTCHAR parenright
ENCODING 41
SWIDTH 361 0
DWIDTH 3 0
BBX 4 9 -1 -2
BITMAP
0080
00E5
00B8
00B8
00E4
06E1
3E70
D900
5000
ENDCHAR
STARTCHAR asterisk
ENCODING 42
SWIDTH 673 0
DWIDTH 5 0
BBX 6 4 0 2
BITMAP
029560
16FF82
3BFF93
07C950
ENDCHAR
STARTCHAR plus
ENCODING 43
SWIDTH 579 0
DWIDTH 5 0
BBX 5 5 0 0
BITMAP
002000
03E000
7CF910
6DB400
094000
ENDCHAR
STARTCHAR comma
ENCODING 44
SWIDTH 204 0
DWIDTH 2 0
BBX 2 4 -1 -2
BITMAP
01
4D
AA
31
ENDCHAR
STARTCHAR hyphen
ENCODING 45
SWIDTH 609 0
DWIDTH 5 0
BBX 5 2 0 1
BITMAP
6AB910
565410
ENDCHAR
STARTCHAR period
ENCODING 46
SWIDTH 228 0
DWIDTH 2 0
BBX 3 3 -1 -1
BITMAP
0200
2F10
0200
ENDCHAR
STARTCHAR slash
ENCODING 47
SWIDTH 401 0
DWIDTH 3 0
BBX 5 7 -1 -1
BITMAP
000060
0009A0
006C10
03D200
1E4000
3C0000
010000
ENDCHAR
STARTCHAR zero
ENCODING 48
SWIDTH 686 0
DWIDTH 6 0
BBX 6 7 0 -1
BITMAP
005D20
05FF40
3F99A0
AC03F1
D95CF2
8FFD50
022000
ENDCHAR
STARTCHAR one
ENCODING 49
SWIDTH 322 0
DWIDTH 3 0
BBX 3 6 0 0
BITMAP
3800
3F10
2F20
5F10
AB00
B600
ENDCHAR
STARTCHAR two
ENCODING 50
SWIDTH 650 0
DWIDTH 5 0
BBX 6 6 0 0
BITMAP
3BC910
4CAFA0
01AF50
0CE400
7FAAC7
5EEB83
ENDCHAR
STARTCHAR three
ENCODING 51
SWIDTH 561 0
DWIDTH 5 0
BBX 6 6 -1 0
BITMAP
058AA1
1FFFF4
02FF50
009ED0
046BF1
0AEB40
ENDCHAR
STARTCHAR four
ENCODING 52
SWIDTH 582 0
DWIDTH 5 0
BBX 5 7 0 -1
BITMAP
102900
854C00
7CBE70
2BFA20
01F100
00E300
002100
ENDCHAR
STARTCHAR five
ENCODING 53
SWIDTH 580 0
DWIDTH 5 0
BBX 6 6 0 0
BITMAP
048340
5FFFF2
8FC310
18E700
47AE00
4DD600
ENDCHAR
STARTCHAR six
ENCODING 54
SWIDTH 500 0
DWIDTH 4 0
BBX 5 6 -1 0
BITMAP
004A00
01EB10
06D000
0CBE70
1FDFB0
0EEA10
ENDCHAR
STARTCHAR seven
ENCODING 55
SWIDTH 576 0
DWIDTH 5 0
BBX 5 6 0 0
BITMAP
8B9300
9ADD00
005E30
5EFFC0
2AE100
097000
ENDCHAR
STARTCHAR eight
ENCODING 56
SWIDTH 537 0
DWIDTH 4 0
BBX 5 6 0 0
BITMAP
19C540
6DCCA0
5EBE40
2FF200
5BD400
2EE200
ENDCHAR
STARTCHAR nine
ENCODING 57
SWIDTH 529 0
DWIDTH 4 0
BBX 5 7 0 -1
BITMAP
05B500
5FBE00
AFFF30
258A00
009700
00B300
001000
ENDCHAR
STARTCHAR colon
ENCODING 58
SWIDTH 241 0
DWIDTH 2 0
BBX 3 5 -1 -1
BITMAP
0420
0970
0200
2F10
0200
ENDCHAR
STARTCHAR semicolon
ENCODING 59
SWIDTH 245 0
DWIDTH 2 0
BBX 3 6 -1 -2
BITMAP
0430
0970
0100
1E20
6D00
2200
ENDCHAR
STARTCHAR less
ENCODING 60
SWIDTH 625 0
DWIDTH 5 0
BBX 5 4 0 0
BITMAP
0018A0
6BEA30
8FB400
016A10
ENDCHAR
STARTCHAR equal
ENCODING 61
SWIDTH 586 0
DWIDTH 5 0
BBX 5 4 0 0
BITMAP
378820
587620
BEEB00
210000
ENDCHAR
STARTCHAR greater
ENCODING 62
SWIDTH 634 0
DWIDTH 5 0
BBX 6 4 -1 0
BITMAP
069500
007ED4
06CE93
3B5000
ENDCHAR
STARTCHAR question
ENCODING 63
SWIDTH 556 0
DWIDTH 4 0
BBX 5 7 0 -1
BITMAP
1BDB60
299EE0
01AE60
0BB200
140000
8A0000
110000
ENDCHAR
STARTCHAR at
ENCODING 64
SWIDTH 732 0
DWIDTH 6 0
BBX 6 7 0 -1
BITMAP
003D60
03D7C2
5E7C89
E8DC69
D3BB91
5DBB90
002210
ENDCHAR
STARTCHAR A
ENCODING 65
SWIDTH 702 0
DWIDTH 6 0
BBX 7 6 -1 0
BITMAP
00039100
006EF400
00ECE700
06F9DE50
0DABBF00
1E309B00
ENDCHAR
STARTCHAR B
ENCODING 66
SWIDTH 686 0
DWIDTH 6 0
BBX 7 7 -1 -1
BITMAP
059CC500
1EE7DE00
02CEF600
01FB9B00
06E4BF20
08FFC500
00120000
ENDCHAR
STARTCHAR C
ENCODING 67
SWIDTH 611 0
DWIDTH 5 0
BBX 5 6 0 0
BITMAP
002A40
08FF70
9F9100
F70000
CA6510
2BEF50
ENDCHAR
STARTCHAR D
ENCODING 68
SWIDTH 588 0
DWIDTH 5 0
BBX 5 6 0 0
BITMAP
572000
7DE600
691C40
792B80
CDFB10
BC5000
ENDCHAR
STARTCHAR E
ENCODING 69
SWIDTH 626 0
DWIDTH 5 0
BBX 6 7 0 -1
BITMAP
0379A1
5FFB70
3FA810
8ECA10
DA5740
AFFD50
010000
ENDCHAR
STARTCHAR F
ENCODING 70
SWIDTH 575 0
DWIDTH 5 0
BBX 7 6 -1 0
BITMAP
0037BD50
07FD8530
01E61000
1EFFF300
0CB42000
0B500000
ENDCHAR
STARTCHAR G
ENCODING 71
SWIDTH 789 0
DWIDTH 6 0
BBX 7 6 0 0
BITMAP
00088000
02DFA000
2ED45100
CD11EE30
D97AEF60
7FEB7200
ENDCHAR
STARTCHAR H
ENCODING 72
SWIDTH 695 0
DWIDTH 6 0
BBX 6 7 0 -1
BITMAP
050090
3E10E5
5F12F6
9FAEF3
DFACD0
D80890
100000
ENDCHAR
STARTCHAR I
ENCODING 73
SWIDTH 515 0
DWIDTH 4 0
BBX 7 7 -1 -1
BITMAP
01ACCA10
009EA500
001F3000
006E0000
03CB1000
3FDC5000
01000000
ENDCHAR
STARTCHAR J
ENCODING 74
SWIDTH 668 0
DWIDTH 5 0
BBX 8 6 -1 0
BITMAP
0279AA91
05DAEC93
0000E600
0003F200
175BC000
1BED3000
ENDCHAR
STARTCHAR K
ENCODING 75
SWIDTH 776 0
DWIDTH 6 0
BBX 7 6 0 0
BITMAP
05802300
0DB6ED00
3FDFA100
8FFB0000
CF8EDC30
A8027810
ENDCHAR
STARTCHAR L
ENCODING 76
SWIDTH 632 0
DWIDTH 5 0
BBX 5 7 0 -1
BITMAP
086000
0E8000
5F3000
AC0000
DB8940
9FDB90
010000
ENDCHAR
STARTCHAR M
ENCODING 77
SWIDTH 973 0
DWIDTH 8 0
BBX 8 7 0 -1
BITMAP
01B30082
09FA09F9
2FFDCFF8
8FAFD6F5
DA0203F3
C30002A0
10000000
ENDCHAR
STARTCHAR N
ENCODING 78
SWIDTH 684 0
DWIDTH 5 0
BBX 7 6 -1 0
BITMAP
00370730
00AF1E80
03FE2F40
0AFD9F10
1FBDFC00
0B43B200
ENDCHAR
STARTCHAR O
ENCODING 79
SWIDTH 744 0
DWIDTH 6 0
BBX 6 7 0 -1
BITMAP
002C60
03EFA0
2EB5E2
AC00A8
D959F9
7FFD70
001000
ENDCHAR
STARTCHAR P
ENCODING 80
SWIDTH 639 0
DWIDTH 5 0
BBX 6 7 0 -1
BITMAP
02BC80
0BDBF3
5F9BF4
9FFD70
8D1000
9A0000
100000
ENDCHAR
STARTCHAR Q
ENCODING 81
SWIDTH 744 0
DWIDTH 6 0
BBX 6 7 0 -1
BITMAP
002C50
01BFE2
2DD399
CC4CAB
F77EF5
9FEAF3
010051
ENDCHAR
STARTCHAR R
ENCODING 82
SWIDTH 646 0
DWIDTH 5 0
BBX 6 7 0 -1
BITMAP
008800
18EF60
6F7DA0
9FFC30
CFD410
B6AFF2
000130
ENDCHAR
STARTCHAR S
ENCODING 83
SWIDTH 576 0
DWIDTH 5 0
BBX 6 7 0 -1
BITMAP
038BC2
AFC994
BFE400
015D00
15CC00
8FA100
010000
ENDCHAR
STARTCHAR T
ENCODING 84
SWIDTH 607 0
DWIDTH 5 0
BBX 7 7 0 -1
BITMAP
679ACB10
CDFC8610
02F40000
08C00000
0C600000
0A700000
00100000
ENDCHAR
STARTCHAR U
ENCODING 85
SWIDTH 695 0
DWIDTH 6 0
BBX 6 6 0 0
BITMAP
010034
5A008A
8D00D9
9C19F3
7FEF50
2DC500
ENDCHAR
STARTCHAR V
ENCODING 86
SWIDTH 583 0
DWIDTH 5 0
BBX 6 6 0 0
BITMAP
4401A2
7C0AE2
6F5F50
4FE900
2FD100
0C6000
ENDCHAR
STARTCHAR W
ENCODING 87
SWIDTH 994 0
DWIDTH 8 0
BBX 9 6 0 0
BITMAP
0620100810
2F62E43F40
6F1AF49D00
AB5FF3F700
CDFCDEE100
4D915E4000
ENDCHAR
STARTCHAR X
ENCODING 88
SWIDTH 623 0
DWIDTH 5 0
BBX 7 7 -1 -1
BITMAP
03700620
04F9BF40
00AFD300
03EF9000
0DC6F300
1E10C500
01000000
ENDCHAR
STARTCHAR Y
ENCODING 89
SWIDTH 493 0
DWIDTH 4 0
BBX 5 7 0 -1
BITMAP
660880
6D7F60
4FF800
0DD000
4F5000
9B0000
110000
ENDCHAR
STARTCHAR Z
ENCODING 90
SWIDTH 664 0
DWIDTH 5 0
BBX 6 7 0 -1
BITMAP
08BAA3
079EF6
01AF60
4EE400
ED5890
DFFC50
141000
ENDCHAR
STARTCHAR bracketleft
ENCODING 91
SWIDTH 387 0
DWIDTH 3 0
BBX 7 10 -1 -2
BITMAP
00023300
006FFE70
00890000
00C60000
01F20000
05D00000
09900000
0E510000
3FFF4000
04200000
ENDCHAR
STARTCHAR backslash
ENCODING 92
SWIDTH 352 0
DWIDTH 3 0
BBX 3 7 0 -1
BITMAP
6400
6A00
3C00
0E00
0D20
0C40
0100
ENDCHAR
STARTCHAR bracketright
ENCODING 93
SWIDTH 403 0
DWIDTH 3 0
BBX 7 10 -3 -2
BITMAP
00023300
004FEF30
00011F10
00005D00
00009900
0000D500
0003F100
0008C000
2DFF6000
04200000
ENDCHAR
STARTCHAR asciicircum
ENCODING 94
SWIDTH 518 0
DWIDTH 4 0
BBX 4 5 0 1
BITMAP
00B2
05F7
2EB9
C959
7004
ENDCHAR
STARTCHAR underscore
ENCODING 95
SWIDTH 708 0
DWIDTH 6 0
BBX 7 2 -1 -1
BITMAP
9DEEED50
13222100
ENDCHAR
STARTCHAR grave
ENCODING 96
SWIDTH 754 0
DWIDTH 6 0
BBX 3 3 2 3
BITMAP
7800
3D70
0130
ENDCHAR
STARTCHAR a
ENCODING 97
SWIDTH 581 0
DWIDTH 5 0
BBX 6 6 -1 -1
BITMAP
000830
00CF80
05E8C2
0CDEF4
1E13E1
000010
ENDCHAR
STARTCHAR b
ENCODING 98
SWIDTH 573 0
DWIDTH 5 0
BBX 6 6 -1 -1
BITMAP
07BC80
1BCAE1
02FF90
07B3D4
0AEE91
012100
ENDCHAR
STARTCHAR c
ENCODING 99
SWIDTH 513 0
DWIDTH 4 0
BBX 4 5 0 0
BITMAP
0178
3DE7
DA10
E420
5DF9
ENDCHAR
STARTCHAR d
ENCODING 100
SWIDTH 497 0
DWIDTH 4 0
BBX 4 5 0 0
BITMAP
6710
8AC3
752B
BAD7
CB40
ENDCHAR
STARTCHAR e
ENCODING 101
SWIDTH 521 0
DWIDTH 4 0
BBX 5 6 0 -1
BITMAP
159B30
7E9500
6FE600
D85300
BFFA00
010000
ENDCHAR
STARTCHAR f
ENCODING 102
SWIDTH 455 0
DWIDTH 4 0
BBX 6 5 -1 0
BITMAP
015AC6
08F731
08E740
1EC830
0C1000
ENDCHAR
STARTCHAR g
ENCODING 103
SWIDTH 652 0
DWIDTH 5 0
BBX 6 5 0 0
BITMAP
004A10
09F910
8E3870
E54BF6
9FEA50
ENDCHAR
STARTCHAR h
ENCODING 104
SWIDTH 582 0
DWIDTH 5 0
BBX 5 6 0 -1
BITMAP
230710
6B0B70
8A4D60
CFDF20
E63D00
100000
ENDCHAR
STARTCHAR i
ENCODING 105
SWIDTH 320 0
DWIDTH 3 0
BBX 3 6 0 -1
BITMAP
0800
2F10
6C00
8A00
5900
0100
ENDCHAR
STARTCHAR j
ENCODING 106
SWIDTH 534 0
DWIDTH 4 0
BBX 7 5 -1 0
BITMAP
038AAA10
058AC610
00088000
031D4000
1DFA0000
ENDCHAR
STARTCHAR k
ENCODING 107
SWIDTH 645 0
DWIDTH 5 0
BBX 6 6 0 -1
BITMAP
083150
2F8EB0
7FF700
BFD971
C618A1
100000
ENDCHAR
STARTCHAR l
ENCODING 108
SWIDTH 533 0
DWIDTH 4 0
BBX 5 6 0 -1
BITMAP
0A2000
3F1000
8A0000
D74200
BFDC10
010000
ENDCHAR
STARTCHAR m
ENCODING 109
SWIDTH 814 0
DWIDTH 7 0
BBX 7 6 0 -1
BITMAP
05800810
1EF2AF50
6FFFDF30
C8662F10
D2002A00
10000000
ENDCHAR
STARTCHAR n
ENCODING 110
SWIDTH 564 0
DWIDTH 5 0
BBX 6 5 -1 0
BITMAP
007355
01E8A8
08F6D4
1EDDF2
0C2B70
ENDCHAR
STARTCHAR o
ENCODING 111
SWIDTH 628 0
DWIDTH 5 0
BBX 5 6 0 -1
BITMAP
007A00
0AFE10
7D2870
D52AB0
9FFB30
010000
ENDCHAR
STARTCHAR p
ENCODING 112
SWIDTH 524 0
DWIDTH 4 0
BBX 5 6 0 -1
BITMAP
05CA10
1E8E50
AEEE30
AB5100
B60000
100000
ENDCHAR
STARTCHAR q
ENCODING 113
SWIDTH 625 0
DWIDTH 5 0
BBX 5 6 0 -1
BITMAP
008900
07ED50
8D75C0
E3AF90
CFDD50
010320
ENDCHAR
STARTCHAR r
ENCODING 114
SWIDTH 541 0
DWIDTH 4 0
BBX 5 6 0 -1
BITMAP
02B200
3DBC00
8ECB00
BF8000
C8ED30
000310
ENDCHAR
STARTCHAR s
ENCODING 115
SWIDTH 463 0
DWIDTH 4 0
BBX 5 6 0 -1
BITMAP
15AC40
CF8630
6AD100
02C400
8F8000
110000
ENDCHAR
STARTCHAR t
ENCODING 116
SWIDTH 479 0
DWIDTH 4 0
BBX 6 6 0 -1
BITMAP
78ABC1
8BE530
099000
0E2000
0D1000
010000
ENDCHAR
STARTCHAR u
ENCODING 117
SWIDTH 584 0
DWIDTH 5 0
BBX 5 5 0 0
BITMAP
110160
6804C0
890B90
8CCD20
3EB200
ENDCHAR
STARTCHAR v
ENCODING 118
SWIDTH 485 0
DWIDTH 4 0
BBX 5 5 0 0
BITMAP
530740
6A4F30
6CD600
4FB000
1E3000
ENDCHAR
STARTCHAR w
ENCODING 119
SWIDTH 825 0
DWIDTH 7 0
BBX 7 5 0 0
BITMAP
07011180
5E0C76D0
996F5C70
CAFECE10
7E73E600
ENDCHAR
STARTCHAR x
ENCODING 120
SWIDTH 506 0
DWIDTH 4 0
BBX 6 6 -1 -1
BITMAP
045053
04FBE4
01DE10
0BCE50
1D1690
010000
ENDCHAR
STARTCHAR y
ENCODING 121
SWIDTH 400 0
DWIDTH 3 0
BBX 4 6 0 -1
BITMAP
643B
7BD8
3FB0
3F20
9900
1100
ENDCHAR
STARTCHAR z
ENCODING 122
SWIDTH 547 0
DWIDTH 4 0
BBX 5 6 0 -1
BITMAP
0BBA40
05BF50
19E400
DB4500
EEEA10
240000
ENDCHAR
STARTCHAR braceleft
ENCODING 123
SWIDTH 448 0
DWIDTH 4 0
BBX 7 10 0 -2
BITMAP
00023200
00AFFE30
00C50000
03F20000
9E700000
5E700000
0D500000
3F210000
7FFE1000
13100000
ENDCHAR
STARTCHAR bar
ENCODING 124
SWIDTH 332 0
DWIDTH 3 0
BBX 3 7 0 -1
BITMAP
0360
0880
0D20
3C00
9700
E200
1000
ENDCHAR
STARTCHAR braceright
ENCODING 125
SWIDTH 481 0
DWIDTH 4 0
BBX 7 10 -3 -2
BITMAP
00024200
006FEF20
00012F00
00007C00
00009D30
00007F80
0004F400
0019B000
3EFF5000
04100000
ENDCHAR
STARTCHAR asciitilde
ENCODING 126
SWIDTH 581 0
DWIDTH 5 0
BBX 5 3 0 1
BITMAP
020110
9DDD30
304200
ENDCHAR
STARTCHAR uni00A0
ENCODING 160
SWIDTH 370 0
DWIDTH 3 0
BBX 1 1 0 0
BITMAP
00
ENDCHAR
STARTCHAR exclamdown
ENCODING 161
SWIDTH 260 0
DWIDTH 2 0
BBX 2 7 0 -1
BITMAP
2C
16
66
B6
E3
E0
10
ENDCHAR
STARTCHAR cent
ENCODING 162
SWIDTH 488 0
DWIDTH 4 0
BBX 4 7 0 -1
BITMAP
0080
04F8
7E82
D200
7EC5
3D20
0100
ENDCHAR
STARTCHAR sterling
ENCODING 163
SWIDTH 586 0
DWIDTH 5 0
BBX 5 6 0 0
BITMAP
001200
04ED80
4CB300
9F8500
AFAD10
565300
ENDCHAR
STARTCHAR currency
ENCODING 164
SWIDTH 509 0
DWIDTH 4 0
BBX 4 5 0 0
BITMAP
1122
5EFC
8BD5
BFF4
8262
ENDCHAR
STARTCHAR yen
ENCODING 165
SWIDTH 563 0
DWIDTH 5 0
BBX 5 5 0 0
BITMAP
0D1B60
0EBC10
8EFB10
5E9300
1D1000
ENDCHAR
STARTCHAR brokenbar
ENCODING 166
SWIDTH 301 0
DWIDTH 2 0
BBX 4 7 -1 -1
BITMAP
0044
00A6
00C1
0210
0B60
1E10
0100
ENDCHAR
STARTCHAR section
ENCODING 167
SWIDTH 630 0
DWIDTH 5 0
BBX 5 8 0 -1
BITMAP
002320
2DFEC0
3FB300
4FEF50
9D7D90
19EF20
67BF50
7B9500
ENDCHAR
STARTCHAR dieresis
ENCODING 168
SWIDTH 754 0
DWIDTH 6 0
BBX 5 2 1 4
BITMAP
2B1C20
150500
ENDCHAR
STARTCHAR copyright
ENCODING 169
SWIDTH 614 0
DWIDTH 5 0
BBX 5 6 0 0
BITMAP
04A710
3B6890
A971B0
B7A5A0
498A10
002000
ENDCHAR
STARTCHAR ordfeminine
ENCODING 170
SWIDTH 454 0
DWIDTH 4 0
BBX 4 5 0 1
BITMAP
0010
1BC0
7EF4
DAF4
3040
ENDCHAR
STARTCHAR guillemotleft
ENCODING 171
SWIDTH 566 0
DWIDTH 5 0
BBX 5 5 0 -1
BITMAP
022210
4D7D20
F5F400
5C5B00
010100
ENDCHAR
STARTCHAR logicalnot
ENCODING 172
SWIDTH 698 0
DWIDTH 6 0
BBX 5 3 0 0
BITMAP
8AAA70
6768D0
000870
ENDCHAR
STARTCHAR sfthyphen
ENCODING 173
SWIDTH 608 0
DWIDTH 5 0
BBX 5 2 0 1
BITMAP
6AB910
565410
ENDCHAR
STARTCHAR registered
ENCODING 174
SWIDTH 624 0
DWIDTH 5 0
BBX 5 6 0 0
BITMAP
03A810
2C78A0
96DAB0
A8C7B0
397C20
002000
ENDCHAR
STARTCHAR macron
ENCODING 175
SWIDTH 754 0
DWIDTH 6 0
BBX 3 2 2 4
BITMAP
BDA0
3210
ENDCHAR
STARTCHAR degree
ENCODING 176
SWIDTH 284 0
DWIDTH 2 0
BBX 3 3 0 4
BITMAP
0140
1CC0
3EB0
ENDCHAR
STARTCHAR plusminus
ENCODING 177
SWIDTH 559 0
DWIDTH 4 0
BBX 6 7 -1 -1
BITMAP
000500
001F30
07EFE4
029C10
005600
2FFEA0
020000
ENDCHAR
STARTCHAR twosuperior
ENCODING 178
SWIDTH 386 0
DWIDTH 3 0
BBX 4 4 0 2
BITMAP
3A70
2DC0
6FE5
0310
ENDCHAR
STARTCHAR threesuperior
ENCODING 179
SWIDTH 366 0
DWIDTH 3 0
BBX 4 4 0 2
BITMAP
3990
2DD0
0CF1
0210
ENDCHAR
STARTCHAR acute
ENCODING 180
SWIDTH 754 0
DWIDTH 6 0
BBX 3 3 2 3
BITMAP
0870
7D30
3100
ENDCHAR
STARTCHAR mu
ENCODING 181
SWIDTH 569 0
DWIDTH 5 0
BBX 6 6 -1 -1
BITMAP
000010
044075
0880C5
0BABB0
0EEA10
1A0000
ENDCHAR
STARTCHAR paragraph
ENCODING 182
SWIDTH 729 0
DWIDTH 6 0
BBX 7 7 0 -1
BITMAP
049CED20
6FCFB900
5E8CC500
06EEF400
00CAD100
00E5E000
00102000
ENDCHAR
STARTCHAR periodcentered
ENCODING 183
SWIDTH 226 0
DWIDTH 2 0
BBX 2 2 0 2
BITMAP
44
65
ENDCHAR
STARTCHAR cedilla
ENCODING 184
SWIDTH 754 0
DWIDTH 6 0
BBX 3 4 2 -3
BITMAP
0500
5D30
4AC0
4620
ENDCHAR
STARTCHAR onesuperior
ENCODING 185
SWIDTH 206 0
DWIDTH 2 0
BBX 2 4 0 2
BITMAP
26
3C
68
11
ENDCHAR
STARTCHAR ordmasculine
ENCODING 186
SWIDTH 445 0
DWIDTH 4 0
BBX 4 5 0 1
BITMAP
0020
1BE0
9CD4
DDF5
2620
ENDCHAR
STARTCHAR guillemotright
ENCODING 187
SWIDTH 595 0
DWIDTH 5 0
BBX 6 5 -1 -1
BITMAP
030300
08B7B0
04E6E3
1C3C30
010100
ENDCHAR
STARTCHAR onequarter
ENCODING 188
SWIDTH 705 0
DWIDTH 6 0
BBX 6 7 0 -1
BITMAP
350550
4B2E30
78D510
1BA7C0
7B2EE3
B50770
100010
ENDCHAR
STARTCHAR onehalf
ENCODING 189
SWIDTH 750 0
DWIDTH 6 0
BBX 6 7 0 -1
BITMAP
350550
4B2E30
78D500
1B9DB1
7B0AC1
B51ED6
100000
ENDCHAR
STARTCHAR threequarters
ENCODING 190
SWIDTH 818 0
DWIDTH 7 0
BBX 7 7 0 -1
BITMAP
3BB02700
1EB1D700
4EBC6100
02C96C00
0C64FD10
3C00C300
01001000
ENDCHAR
STARTCHAR questiondown
ENCODING 191
SWIDTH 556 0
DWIDTH 4 0
BBX 5 7 -1 -1
BITMAP
0002B0
000180
002A40
07EA00
6F9330
5EFF90
003300
ENDCHAR
STARTCHAR Agrave
ENCODING 192
SWIDTH 702 0
DWIDTH 6 0
BBX 7 8 -1 0
BITMAP
00078000
0003D700
0003B400
006EF400
00ECE700
06F9DE50
0DABBF00
1E309B00
ENDCHAR
STARTCHAR Aacute
ENCODING 193
SWIDTH 702 0
DWIDTH 6 0
BBX 7 9 -1 0
BITMAP
00007800
0006E400
00032000
00039100
006EF400
00ECE700
06F9DE50
0DABBF00
1E309B00
ENDCHAR
STARTCHAR Acircumflex
ENCODING 194
SWIDTH 702 0
DWIDTH 6 0
BBX 7 9 -1 0
BITMAP
00002000
0008E800
001A2A10
00039100
006EF400
00ECE700
06F9DE50
0DABBF00
1E309B00
ENDCHAR
STARTCHAR Atilde
ENCODING 195
SWIDTH 702 0
DWIDTH 6 0
BBX 7 8 -1 0
BITMAP
0008E9A0
00073820
00039100
006EF400
00ECE700
06F9DE50
0DABBF00
1E309B00
ENDCHAR
STARTCHAR Adieresis
ENCODING 196
SWIDTH 702 0
DWIDTH 6 0
BBX 7 8 -1 0
BITMAP
001B1B20
00060500
00039100
006EF400
00ECE700
06F9DE50
0DABBF00
1E309B00
ENDCHAR
STARTCHAR Aring
ENCODING 197
SWIDTH 702 0
DWIDTH 6 0
BBX 7 8 -1 0
BITMAP
00004500
0003DC00
0006F700
006EF400
00ECE700
06F9DE50
0DABBF00
1E309B00
ENDCHAR
STARTCHAR AE
ENCODING 198
SWIDTH 1153 0
DWIDTH 9 0
BBX 11 7 -1 -1
BITMAP
000193269B30
004DF9FFC810
00DCE8EB9200
08F9EEFCB300
2F9BDFC57600
6B01EBFFE800
000000100000
ENDCHAR
STARTCHAR Ccedilla
ENCODING 199
SWIDTH 611 0
DWIDTH 5 0
BBX 5 9 0 -3
BITMAP
002A40
08FF70
9F9100
F70000
CA6510
2CFF50
0C7000
16D400
186000
ENDCHAR
STARTCHAR Egrave
ENCODING 200
SWIDTH 626 0
DWIDTH 5 0
BBX 6 10 0 -1
BITMAP
00B300
007E20
000410
0379A1
5FFB70
3FA810
8ECA10
DA5740
AFFD50
010000
ENDCHAR
STARTCHAR Eacute
ENCODING 201
SWIDTH 626 0
DWIDTH 5 0
BBX 6 10 0 -1
BITMAP
000870
007D30
003100
0379A1
5FFB70
3FA810
8ECA10
DA5740
AFFD50
010000
ENDCHAR
STARTCHAR Ecircumflex
ENCODING 202
SWIDTH 626 0
DWIDTH 5 0
BBX 6 10 0 -1
BITMAP
000100
01BE50
039390
0379A1
5FFB70
3FA810
8ECA10
DA5740
AFFD50
010000
ENDCHAR
STARTCHAR Edieresis
ENCODING 203
SWIDTH 626 0
DWIDTH 5 0
BBX 6 9 0 -1
BITMAP
03A2B0
025140
0379A1
5FFB70
3FA810
8ECA10
DA5740
AFFD50
010000
ENDCHAR
STARTCHAR Igrave
ENCODING 204
SWIDTH 515 0
DWIDTH 4 0
BBX 7 10 -1 -1
BITMAP
002B1000
001AC000
00005000
01ACCA10
009EA500
001F3000
006E0000
03CB1000
3FDC5000
01000000
ENDCHAR
STARTCHAR Iacute
ENCODING 205
SWIDTH 515 0
DWIDTH 4 0
BBX 7 10 -1 -1
BITMAP
00003C00
0002E700
00014000
01ACCA10
009EA500
001F3000
006E0000
03CB1000
3FDC5000
01000000
ENDCHAR
STARTCHAR Icircumflex
ENCODING 206
SWIDTH 515 0
DWIDTH 4 0
BBX 7 10 -1 -1
BITMAP
00001000
000AE600
00292A00
01ACCA10
009EA500
001F3000
006E0000
03CB1000
3FDC5000
01000000
ENDCHAR
STARTCHAR Idieresis
ENCODING 207
SWIDTH 515 0
DWIDTH 4 0
BBX 7 9 -1 -1
BITMAP
002B1C20
00150500
01ACCA10
009EA500
001F3000
006E0000
03CB1000
3FDC5000
01000000
ENDCHAR
STARTCHAR Eth
ENCODING 208
SWIDTH 656 0
DWIDTH 5 0
BBX 6 6 0 0
BITMAP
095000
0EDC20
7E75C0
CF85F1
4FDF60
3E9200
ENDCHAR
STARTCHAR Ntilde
ENCODING 209
SWIDTH 684 0
DWIDTH 5 0
BBX 7 8 -1 0
BITMAP
0006EAC0
00063830
00370730
00AF1E80
03FE2F40
0AFD9F10
1FBDFC00
0B43B200
ENDCHAR
STARTCHAR Ograve
ENCODING 210
SWIDTH 744 0
DWIDTH 6 0
BBX 6 9 0 -1
BITMAP
000B40
0007E2
002C91
03EFA0
2EB5E2
AC00A8
D959F9
7FFD70
001000
ENDCHAR
STARTCHAR Oacute
ENCODING 211
SWIDTH 744 0
DWIDTH 6 0
BBX 6 10 0 -1
BITMAP
000780
006E40
003200
002C60
03EFA0
2EB5E2
AC00A8
D959F9
7FFD70
001000
ENDCHAR
STARTCHAR Ocircumflex
ENCODING 212
SWIDTH 744 0
DWIDTH 6 0
BBX 6 10 0 -1
BITMAP
000100
003DC1
008465
002C60
03EFA0
2EB5E2
AC00A8
D959F9
7FFD70
001000
ENDCHAR
STARTCHAR Otilde
ENCODING 213
SWIDTH 744 0
DWIDTH 6 0
BBX 6 9 0 -1
BITMAP
006EAC
006383
002C60
03EFA0
2EB5E2
AC00A8
D959F9
7FFD70
001000
ENDCHAR
STARTCHAR Odieresis
ENCODING 214
SWIDTH 744 0
DWIDTH 6 0
BBX 6 9 0 -1
BITMAP
009586
005232
002C60
03EFA0
2EB5E2
AC00A8
D959F9
7FFD70
001000
ENDCHAR
STARTCHAR multiply
ENCODING 215
SWIDTH 490 0
DWIDTH 4 0
BBX 4 5 0 0
BITMAP
1000
6A7B
1EB1
ABC0
A091
ENDCHAR
STARTCHAR Oslash
ENCODING 216
SWIDTH 744 0
DWIDTH 6 0
BBX 6 7 0 -1
BITMAP
002C87
03EFF7
2ECEF2
AC9DB8
DCFCF9
7FFD70
2E1000
ENDCHAR
STARTCHAR Ugrave
ENCODING 217
SWIDTH 695 0
DWIDTH 6 0
BBX 6 8 0 0
BITMAP
03B100
01BB00
010434
5A008A
8D00D9
9C19F3
7FEF50
2DC500
ENDCHAR
STARTCHAR Uacute
ENCODING 218
SWIDTH 695 0
DWIDTH 6 0
BBX 6 8 0 0
BITMAP
0003C0
002E70
011434
5A008A
8D00D9
9C19F3
7FEF50
2DC500
ENDCHAR
STARTCHAR Ucircumflex
ENCODING 219
SWIDTH 695 0
DWIDTH 6 0
BBX 6 9 0 0
BITMAP
000100
00AE60
0292A0
010034
5A008A
8D00D9
9C19F3
7FEF50
2DC500
ENDCHAR
STARTCHAR Udieresis
ENCODING 220
SWIDTH 695 0
DWIDTH 6 0
BBX 6 8 0 0
BITMAP
02B2B1
015050
010034
5A008A
8D00D9
9C19F3
7FEF50
2DC500
ENDCHAR
STARTCHAR Yacute
ENCODING 221
SWIDTH 493 0
DWIDTH 4 0
BBX 5 10 0 -1
BITMAP
000960
008D20
004100
660880
6D7F60
4FF800
0DD000
4F5000
9B0000
110000
ENDCHAR
STARTCHAR Thorn
ENCODING 222
SWIDTH 680 0
DWIDTH 5 0
BBX 6 6 0 0
BITMAP
090000
4FCA60
7F69F6
AD7EE3
BFC710
890000
ENDCHAR
STARTCHAR germandbls
ENCODING 223
SWIDTH 931 0
DWIDTH 7 0
BBX 9 6 0 -1
BITMAP
15AC57BB10
CF87FE6620
6AD28BB000
02C404D000
8F80CE5000
1100100000
ENDCHAR
STARTCHAR agrave
ENCODING 224
SWIDTH 581 0
DWIDTH 5 0
BBX 6 9 -1 -1
BITMAP
002C20
0009D0
000040
000830
00CF80
05E8C2
0CDEF4
1E13E1
000010
ENDCHAR
STARTCHAR aacute
ENCODING 225
SWIDTH 581 0
DWIDTH 5 0
BBX 6 9 -1 -1
BITMAP
0003C0
001E80
001400
000830
00CF80
05E8C2
0CDEF4
1E13E1
000010
ENDCHAR
STARTCHAR acircumflex
ENCODING 226
SWIDTH 581 0
DWIDTH 5 0
BBX 6 9 -1 -1
BITMAP
000100
003DC1
008475
000830
00CF80
05E8C2
0CDEF4
1E13E1
000010
ENDCHAR
STARTCHAR atilde
ENCODING 227
SWIDTH 581 0
DWIDTH 5 0
BBX 6 8 -1 -1
BITMAP
005EAC
006383
000830
00CF80
05E8C2
0CDEF4
1E13E1
000010
ENDCHAR
STARTCHAR adieresis
ENCODING 228
SWIDTH 581 0
DWIDTH 5 0
BBX 6 8 -1 -1
BITMAP
006759
003323
000830
00CF80
05E8C2
0CDEF4
1E13E1
000010
ENDCHAR
STARTCHAR aring
ENCODING 229
SWIDTH 581 0
DWIDTH 5 0
BBX 6 8 -1 -1
BITMAP
000160
000BD2
000FD2
00CF80
05E8C2
0CDEF4
1E13E1
000010
ENDCHAR
STARTCHAR ae
ENCODING 230
SWIDTH 948 0
DWIDTH 8 0
BBX 9 6 -1 -1
BITMAP
0007548A70
00BFAFC720
06D9CEFC00
1EDEFC4500
6908DFFD30
0000011000
ENDCHAR
STARTCHAR ccedilla
ENCODING 231
SWIDTH 513 0
DWIDTH 4 0
BBX 4 8 0 -3
BITMAP
0178
3DE7
DA10
E420
5EF9
0D50
28E0
1420
ENDCHAR
STARTCHAR egrave
ENCODING 232
SWIDTH 521 0
DWIDTH 4 0
BBX 5 9 0 -1
BITMAP
0B4000
07E200
003100
159B30
7E9500
6FE600
D85300
BFFA00
010000
ENDCHAR
STARTCHAR eacute
ENCODING 233
SWIDTH 521 0
DWIDTH 4 0
BBX 5 9 0 -1
BITMAP
003B00
02E700
013000
159B30
7E9500
6FE600
D85300
BFFA00
010000
ENDCHAR
STARTCHAR ecircumflex
ENCODING 234
SWIDTH 521 0
DWIDTH 4 0
BBX 5 9 0 -1
BITMAP
001100
03DC20
075660
159B30
7E9500
6FE600
D85300
BFFA00
010000
ENDCHAR
STARTCHAR edieresis
ENCODING 235
SWIDTH 521 0
DWIDTH 4 0
BBX 5 8 0 -1
BITMAP
067590
033230
159B30
7E9500
6FE600
D85300
BFFA00
010000
ENDCHAR
STARTCHAR igrave
ENCODING 236
SWIDTH 320 0
DWIDTH 3 0
BBX 3 9 0 -1
BITMAP
3B10
1BC0
0050
0800
2F10
6C00
8A00
5900
0100
ENDCHAR
STARTCHAR iacute
ENCODING 237
SWIDTH 320 0
DWIDTH 3 0
BBX 5 9 0 -1
BITMAP
002C10
01D900
004000
080000
2F1000
6C0000
8A0000
590000
010000
ENDCHAR
STARTCHAR icircumflex
ENCODING 238
SWIDTH 320 0
DWIDTH 3 0
BBX 4 9 0 -1
BITMAP
0110
2DD2
7556
0800
2F10
6C00
8A00
5900
0100
ENDCHAR
STARTCHAR idieresis
ENCODING 239
SWIDTH 320 0
DWIDTH 3 0
BBX 4 8 0 -1
BITMAP
7677
4233
0800
2F10
6C00
8A00
5900
0100
ENDCHAR
STARTCHAR eth
ENCODING 240
SWIDTH 541 0
DWIDTH 4 0
BBX 6 5 -1 0
BITMAP
029300
03CB70
2EF4C2
08CBC1
07D700
ENDCHAR
STARTCHAR ntilde
ENCODING 241
SWIDTH 564 0
DWIDTH 5 0
BBX 7 7 -1 0
BITMAP
000BEA60
00255700
00735500
01E8A800
08F6D400
1EDDF200
0C2B7000
ENDCHAR
STARTCHAR ograve
ENCODING 242
SWIDTH 628 0
DWIDTH 5 0
BBX 5 8 0 -1
BITMAP
00A500
005E40
007C20
0AFE10
7D2870
D52AB0
9FFB30
010000
ENDCHAR
STARTCHAR oacute
ENCODING 243
SWIDTH 628 0
DWIDTH 5 0
BBX 5 9 0 -1
BITMAP
001C20
00CA10
005000
007A00
0AFE10
7D2870
D52AB0
9FFB30
010000
ENDCHAR
STARTCHAR ocircumflex
ENCODING 244
SWIDTH 628 0
DWIDTH 5 0
BBX 5 9 0 -1
BITMAP
000100
00AE60
0292A0
007A00
0AFE10
7D2870
D52AB0
9FFB30
010000
ENDCHAR
STARTCHAR otilde
ENCODING 245
SWIDTH 628 0
DWIDTH 5 0
BBX 6 8 0 -1
BITMAP
00BEA6
025570
007A00
0AFE10
7D2870
D52AB0
9FFB30
010000
ENDCHAR
STARTCHAR odieresis
ENCODING 246
SWIDTH 628 0
DWIDTH 5 0
BBX 6 8 0 -1
BITMAP
02B1C2
015050
007A00
0AFE10
7D2870
D52AB0
9FFB30
010000
ENDCHAR
STARTCHAR divide
ENCODING 247
SWIDTH 559 0
DWIDTH 4 0
BBX 5 6 0 -1
BITMAP
018000
02B000
9CDB10
574200
0C5000
010000
ENDCHAR
STARTCHAR oslash
ENCODING 248
SWIDTH 632 0
DWIDTH 5 0
BBX 5 6 0 -1
BITMAP
007A80
09FF70
7DAE70
DAEAB0
AFFC30
4A1000
ENDCHAR
STARTCHAR ugrave
ENCODING 249
SWIDTH 584 0
DWIDTH 5 0
BBX 5 8 0 0
BITMAP
059000
02C900
001400
110160
6804C0
890B90
8CCD20
3EB200
ENDCHAR
STARTCHAR uacute
ENCODING 250
SWIDTH 584 0
DWIDTH 5 0
BBX 5 7 0 0
BITMAP
000960
008D20
114260
6804C0
890B90
8CCD20
3EB200
ENDCHAR
STARTCHAR ucircumflex
ENCODING 251
SWIDTH 584 0
DWIDTH 5 0
BBX 5 8 0 0
BITMAP
001100
02DD20
066570
110160
6804C0
890B90
8CCD20
3EB200
ENDCHAR
STARTCHAR udieresis
ENCODING 252
SWIDTH 584 0
DWIDTH 5 0
BBX 5 7 0 0
BITMAP
067590
033230
110160
6804C0
890B90
8CCD20
3EB200
ENDCHAR
STARTCHAR yacute
ENCODING 253
SWIDTH 400 0
DWIDTH 3 0
BBX 5 9 0 -1
BITMAP
001B30
00BB10
005000
643B00
7BD800
3FB000
3F2000
990000
110000
ENDCHAR
STARTCHAR thorn
ENCODING 254
SWIDTH 579 0
DWIDTH 5 0
BBX 5 5 0 0
BITMAP
290000
6FED40
A94E90
BED700
970000
ENDCHAR
STARTCHAR ydieresis
ENCODING 255
SWIDTH 400 0
DWIDTH 3 0
BBX 5 8 0 -1
BITMAP
0A3950
051410
643B00
7BD800
3FB000
3F2000
990000
110000
ENDCHAR
STARTCHAR dotlessi
ENCODING 305
SWIDTH 320 0
DWIDTH 3 0
BBX 3 6 0 -1
BITMAP
0800
2F10
6C00
8A00
5900
0100
ENDCHAR
STARTCHAR Lslash
ENCODING 321
SWIDTH 632 0
DWIDTH 5 0
BBX 6 7 -1 -1
BITMAP
008600
00E800
18FE20
9FC100
0DB894
09FDB9
001000
ENDCHAR
STARTCHAR lslash
ENCODING 322
SWIDTH 533 0
DWIDTH 4 0
BBX 6 6 -1 -1
BITMAP
00A200
03F300
6DE700
4E7420
0BFDC1
001000
ENDCHAR
STARTCHAR OE
ENCODING 338
SWIDTH 1212 0
DWIDTH 10 0
BBX 10 7 0 -1
BITMAP
002C6148A8
03EFAAFEA5
2EB5EAE960
AC00AFDC80
D959FF7682
7FFD8DFEC2
0010001000
ENDCHAR
STARTCHAR oe
ENCODING 339
SWIDTH 1010 0
DWIDTH 8 0
BBX 9 6 0 -1
BITMAP
007A169B20
0AFE9E9500
7D28DFE500
D52AF75200
9FFBDFF900
0100010000
ENDCHAR
STARTCHAR Scaron
ENCODING 352
SWIDTH 576 0
DWIDTH 5 0
BBX 6 10 0 -1
BITMAP
001010
02D6C0
006C20
038BC2
AFC994
BFE400
015D00
15CC00
8FA100
010000
ENDCHAR
STARTCHAR scaron
ENCODING 353
SWIDTH 463 0
DWIDTH 4 0
BBX 5 9 0 -1
BITMAP
010100
0D5D10
03C400
15AC40
CF8630
6AD100
02C400
8F8000
110000
ENDCHAR
STARTCHAR Ydieresis
ENCODING 376
SWIDTH 493 0
DWIDTH 4 0
BBX 5 9 0 -1
BITMAP
067590
033230
660880
6D7F60
4FF800
0DD000
4F5000
9B0000
110000
ENDCHAR
STARTCHAR Zcaron
ENCODING 381
SWIDTH 664 0
DWIDTH 5 0
BBX 6 10 0 -1
BITMAP
001001
007A89
0009A1
08BAA3
079EF6
01AF60
4EE400
ED5890
DFFC50
141000
ENDCHAR
STARTCHAR zcaron
ENCODING 382
SWIDTH 547 0
DWIDTH 4 0
BBX 5 10 0 -1
BITMAP
001010
02D6C0
006C20
000000
0BBA40
05BF50
19E400
DB4500
EEEA10
240000
ENDCHAR
STARTCHAR circumflex
ENCODING 710
SWIDTH 754 0
DWIDTH 6 0
BBX 5 3 1 4
BITMAP
002000
08E800
1A2A10
ENDCHAR
STARTCHAR caron
ENCODING 711
SWIDTH 754 0
DWIDTH 6 0
BBX 5 3 1 4
BITMAP
010100
1D5D10
04C400
ENDCHAR
STARTCHAR breve
ENCODING 728
SWIDTH 754 0
DWIDTH 6 0
BBX 5 3 1 4
BITMAP
010100
1D7D10
038300
ENDCHAR
STARTCHAR dotaccent
ENCODING 729
SWIDTH 754 0
DWIDTH 6 0
BBX 3 2 2 4
BITMAP
1B10
1600
ENDCHAR
STARTCHAR ring
ENCODING 730
SWIDTH 754 0
DWIDTH 6 0
BBX 3 3 2 4
BITMAP
0410
5D70
8E60
ENDCHAR
STARTCHAR ogonek
ENCODING 731
SWIDTH 754 0
DWIDTH 6 0
BBX 4 4 2 -3
BITMAP
1100
9300
4DC3
0020
ENDCHAR
STARTCHAR tilde
ENCODING 732
SWIDTH 754 0
DWIDTH 6 0
BBX 5 2 1 4
BITMAP
1DDB40
346600
ENDCHAR
STARTCHAR hungarumlaut
ENCODING 733
SWIDTH 754 0
DWIDTH 6 0
BBX 5 3 1 3
BITMAP
087780
7D9E30
413100
ENDCHAR
STARTCHAR endash
ENCODING 8211
SWIDTH 588 0
DWIDTH 5 0
BBX 5 2 0 1
BITMAP
7AB910
665400
ENDCHAR
STARTCHAR emdash
ENCODING 8212
SWIDTH 878 0
DWIDTH 7 0
BBX 7 2 0 1
BITMAP
8BBBBA30
46544410
ENDCHAR
STARTCHAR quoteleft
ENCODING 8216
SWIDTH 203 0
DWIDTH 2 0
BBX 3 3 0 3
BITMAP
0D50
3E10
1400
ENDCHAR
STARTCHAR quoteright
ENCODING 8217
SWIDTH 199 0
DWIDTH 2 0
BBX 3 3 0 3
BITMAP
0C50
3F20
1400
ENDCHAR
STARTCHAR quotesinglbase
ENCODING 8218
SWIDTH 204 0
DWIDTH 2 0
BBX 2 3 -1 -2
BITMAP
4D
AA
31
ENDCHAR
STARTCHAR quotedblleft
ENCODING 8220
SWIDTH 410 0
DWIDTH 3 0
BBX 5 3 0 3
BITMAP
1E8E10
3E9900
152200
ENDCHAR
STARTCHAR quotedblright
ENCODING 8221
SWIDTH 425 0
DWIDTH 3 0
BBX 5 3 0 3
BITMAP
0C5D20
3F9D00
143200
ENDCHAR
STARTCHAR quotedblbase
ENCODING 8222
SWIDTH 430 0
DWIDTH 3 0
BBX 4 3 -1 -2
BITMAP
4D7B
ABD6
3140
ENDCHAR
STARTCHAR bullet
ENCODING 8226
SWIDTH 299 0
DWIDTH 2 0
BBX 2 3 0 1
BITMAP
12
AC
44
ENDCHAR
STARTCHAR ellipsis
ENCODING 8230
SWIDTH 768 0
DWIDTH 6 0
BBX 7 3 -1 -1
BITMAP
02020200
2F2E4C60
02020200
ENDCHAR
STARTCHAR perthousand
ENCODING 8240
SWIDTH 889 0
DWIDTH 7 0
BBX 8 6 0 0
BITMAP
06304200
6D94D100
6B9C2000
04C72160
4C7D8CD1
956C6CA1
ENDCHAR
STARTCHAR guilsinglleft
ENCODING 8249
SWIDTH 322 0
DWIDTH 3 0
BBX 3 5 0 -1
BITMAP
0220
4D20
F400
5C00
0100
ENDCHAR
STARTCHAR guilsinglright
ENCODING 8250
SWIDTH 341 0
DWIDTH 3 0
BBX 4 5 -1 -1
BITMAP
0300
08B0
04E2
1C20
0100
ENDCHAR
STARTCHAR fraction
ENCODING 8260
SWIDTH 541 0
DWIDTH 4 0
BBX 5 7 0 -1
BITMAP
000730
004E10
02D300
1C6000
A80000
D20000
100000
ENDCHAR
STARTCHAR Euro
ENCODING 8364
SWIDTH 565 0
DWIDTH 5 0
BBX 6 5 -1 0
BITMAP
0004B1
00AF91
19FB40
0AEA60
008DC0
ENDCHAR
STARTCHAR Delta
ENCODING 8710
SWIDTH 403 0
DWIDTH 3 0
BBX 6 6 -1 -1
BITMAP
03BCB2
018C30
008800
00D400
3EEA00
010000
ENDCHAR
STARTCHAR minus
ENCODING 8722
SWIDTH 548 0
DWIDTH 4 0
BBX 4 2 0 1
BITMAP
8AB8
7654
ENDCHAR
STARTCHAR approxequal
ENCODING 8776
SWIDTH 323 0
DWIDTH 3 0
BBX 3 6 0 0
BITMAP
0900
2F30
6F10
9C00
AA00
7A00
ENDCHAR
STARTCHAR fi
ENCODING 64257
SWIDTH 810 0
DWIDTH 6 0
BBX 7 5 -1 0
BITMAP
015AC680
08F734F0
08E747B0
1EC83980
0C100780
ENDCHAR
STARTCHAR fl
ENCODING 64258
SWIDTH 1012 0
DWIDTH 8 0
BBX 9 6 -1 -1
BITMAP
015AC7B100
08F737E000
08E74B8000
1EC83F5410
0C100DFDB0
0000001000
ENDCHAR
STARTCHAR .notdef
ENCODING -1
SWIDTH 370 0
DWIDTH 3 0
BBX 1 1 0 0
BITMAP
00
ENDCHAR
ENDFONT
